<svg width="66" height="66" viewBox="0 0 66 66" fill="none" xmlns="http://www.w3.org/2000/svg">
<circle cx="33" cy="33" r="33" fill="white"/>
<path fill-rule="evenodd" clip-rule="evenodd" d="M42.0724 24.9619L49.9973 32.8868C50.4837 33.3732 50.4837 34.1616 49.9973 34.6479L42.0724 42.5729C41.5861 43.0592 40.7976 43.0592 40.3113 42.5729C39.825 42.0866 39.825 41.2981 40.3113 40.8118L46.1104 35.0127L18.4191 35.0127C17.7314 35.0127 17.1738 34.4551 17.1738 33.7674C17.1738 33.0796 17.7314 32.5221 18.4191 32.5221L46.1104 32.5221L40.3113 26.723C39.825 26.2367 39.825 25.4482 40.3113 24.9619C40.7976 24.4756 41.5861 24.4756 42.0724 24.9619Z" fill="#234930"/>
</svg>
