<svg width="66" height="66" viewBox="0 0 66 66" fill="none" xmlns="http://www.w3.org/2000/svg">
<circle cx="33" cy="33" r="33" fill="#234930"/>
<path fill-rule="evenodd" clip-rule="evenodd" d="M42.0722 24.9619L49.9972 32.8868C50.4835 33.3732 50.4835 34.1616 49.9972 34.6479L42.0722 42.5729C41.5859 43.0592 40.7974 43.0592 40.3111 42.5729C39.8248 42.0866 39.8248 41.2981 40.3111 40.8118L46.1102 35.0127L18.4189 35.0127C17.7312 35.0127 17.1736 34.4551 17.1736 33.7674C17.1736 33.0796 17.7312 32.5221 18.4189 32.5221L46.1102 32.5221L40.3111 26.723C39.8248 26.2367 39.8248 25.4482 40.3111 24.9619C40.7974 24.4756 41.5859 24.4756 42.0722 24.9619Z" fill="white"/>
</svg>
