<svg width="1294" height="128" viewBox="0 0 1294 128" fill="none" xmlns="http://www.w3.org/2000/svg">
<path d="M81.9134 35.2003H67.5099C66.956 32.1226 65.925 29.4143 64.4169 27.0753C62.9089 24.7363 61.0623 22.7512 58.8771 21.12C56.692 19.4889 54.2453 18.2578 51.5369 17.4268C48.8594 16.5959 46.0125 16.1804 42.9965 16.1804C37.549 16.1804 32.6709 17.55 28.3622 20.2891C24.0843 23.0282 20.6989 27.0445 18.206 32.3381C15.7438 37.6316 14.5128 44.0947 14.5128 51.7273C14.5128 59.4214 15.7438 65.9152 18.206 71.2088C20.6989 76.5024 24.0997 80.5033 28.4084 83.2116C32.7171 85.92 37.5644 87.2741 42.9503 87.2741C45.9356 87.2741 48.767 86.8741 51.4446 86.0739C54.1529 85.2429 56.5997 84.0272 58.7848 82.4268C60.9699 80.8265 62.8165 78.8722 64.3246 76.5639C65.8634 74.2249 66.9252 71.5473 67.5099 68.5312L81.9134 68.5774C81.1439 73.2247 79.6513 77.5026 77.4354 81.4112C75.2502 85.2891 72.4342 88.6437 68.9872 91.4751C65.571 94.2758 61.6624 96.4455 57.2614 97.9844C52.8603 99.5232 48.0592 100.293 42.858 100.293C34.6714 100.293 27.3774 98.3537 20.9759 94.4759C14.5743 90.5672 9.52699 84.9813 5.83381 77.718C2.1714 70.4548 0.340199 61.7912 0.340199 51.7273C0.340199 41.6326 2.18679 32.969 5.87997 25.7365C9.57315 18.4732 14.6205 12.9027 21.022 9.02486C27.4235 5.11624 34.7022 3.16193 42.858 3.16193C47.8745 3.16193 52.5526 3.88518 56.892 5.33168C61.2623 6.74739 65.1863 8.8402 68.6641 11.6101C72.1418 14.3492 75.0194 17.7038 77.2969 21.674C79.5743 25.6134 81.1132 30.1222 81.9134 35.2003ZM127.743 100.431C121.096 100.431 115.294 98.9077 110.339 95.8608C105.384 92.8139 101.537 88.5514 98.7981 83.0732C96.059 77.5949 94.6895 71.1934 94.6895 63.8686C94.6895 56.513 96.059 50.0807 98.7981 44.5717C101.537 39.0627 105.384 34.7848 110.339 31.7379C115.294 28.6911 121.096 27.1676 127.743 27.1676C134.391 27.1676 140.193 28.6911 145.148 31.7379C150.103 34.7848 153.95 39.0627 156.689 44.5717C159.428 50.0807 160.797 56.513 160.797 63.8686C160.797 71.1934 159.428 77.5949 156.689 83.0732C153.95 88.5514 150.103 92.8139 145.148 95.8608C140.193 98.9077 134.391 100.431 127.743 100.431ZM127.79 88.8438C132.098 88.8438 135.668 87.705 138.5 85.4276C141.331 83.1501 143.424 80.1186 144.778 76.3331C146.163 72.5476 146.856 68.3774 146.856 63.8224C146.856 59.2983 146.163 55.1435 144.778 51.358C143.424 47.5417 141.331 44.4794 138.5 42.1712C135.668 39.8629 132.098 38.7088 127.79 38.7088C123.45 38.7088 119.849 39.8629 116.987 42.1712C114.156 44.4794 112.047 47.5417 110.662 51.358C109.308 55.1435 108.631 59.2983 108.631 63.8224C108.631 68.3774 109.308 72.5476 110.662 76.3331C112.047 80.1186 114.156 83.1501 116.987 85.4276C119.849 87.705 123.45 88.8438 127.79 88.8438ZM189.42 99L168.553 28.0909H182.818L196.714 80.1648H197.406L211.348 28.0909H225.613L239.462 79.9339H240.155L253.958 28.0909H268.223L247.403 99H233.322L218.919 47.8033H217.857L203.454 99H189.42ZM309.032 100.431C302.385 100.431 296.583 98.9077 291.628 95.8608C286.673 92.8139 282.826 88.5514 280.087 83.0732C277.348 77.5949 275.979 71.1934 275.979 63.8686C275.979 56.513 277.348 50.0807 280.087 44.5717C282.826 39.0627 286.673 34.7848 291.628 31.7379C296.583 28.6911 302.385 27.1676 309.032 27.1676C315.68 27.1676 321.482 28.6911 326.437 31.7379C331.392 34.7848 335.239 39.0627 337.978 44.5717C340.717 50.0807 342.086 56.513 342.086 63.8686C342.086 71.1934 340.717 77.5949 337.978 83.0732C335.239 88.5514 331.392 92.8139 326.437 95.8608C321.482 98.9077 315.68 100.431 309.032 100.431ZM309.079 88.8438C313.387 88.8438 316.957 87.705 319.789 85.4276C322.62 83.1501 324.713 80.1186 326.067 76.3331C327.452 72.5476 328.145 68.3774 328.145 63.8224C328.145 59.2983 327.452 55.1435 326.067 51.358C324.713 47.5417 322.62 44.4794 319.789 42.1712C316.957 39.8629 313.387 38.7088 309.079 38.7088C304.739 38.7088 301.138 39.8629 298.276 42.1712C295.445 44.4794 293.336 47.5417 291.952 51.358C290.597 55.1435 289.92 59.2983 289.92 63.8224C289.92 68.3774 290.597 72.5476 291.952 76.3331C293.336 80.1186 295.445 83.1501 298.276 85.4276C301.138 87.705 304.739 88.8438 309.079 88.8438ZM357.494 99V28.0909H370.836V39.3551H371.574C372.867 35.5388 375.144 32.5381 378.407 30.353C381.7 28.1371 385.424 27.0291 389.578 27.0291C390.44 27.0291 391.456 27.0599 392.625 27.1214C393.826 27.183 394.764 27.2599 395.441 27.3523V40.5554C394.887 40.4015 393.903 40.2322 392.487 40.0476C391.071 39.8321 389.655 39.7244 388.24 39.7244C384.977 39.7244 382.069 40.4169 379.515 41.8018C376.991 43.156 374.99 45.0488 373.513 47.4801C372.036 49.8807 371.297 52.6198 371.297 55.6974V99H357.494ZM420.082 74.9482L419.99 58.098H422.39L450.643 28.0909H467.17L434.947 62.2528H432.777L420.082 74.9482ZM407.387 99V4.45454H421.19V99H407.387ZM452.166 99L426.776 65.2997L436.286 55.6513L469.109 99H452.166ZM479.75 99V28.0909H493.553V99H479.75ZM486.721 17.1499C484.32 17.1499 482.258 16.3497 480.535 14.7493C478.842 13.1181 477.996 11.1792 477.996 8.93252C477.996 6.65506 478.842 4.71614 480.535 3.11576C482.258 1.48461 484.32 0.669032 486.721 0.669032C489.121 0.669032 491.168 1.48461 492.861 3.11576C494.584 4.71614 495.446 6.65506 495.446 8.93252C495.446 11.1792 494.584 13.1181 492.861 14.7493C491.168 16.3497 489.121 17.1499 486.721 17.1499ZM525.926 56.8977V99H512.123V28.0909H525.372V39.6321H526.249C527.88 35.8774 530.435 32.8613 533.913 30.5838C537.421 28.3063 541.838 27.1676 547.162 27.1676C551.994 27.1676 556.226 28.1832 559.857 30.2145C563.489 32.215 566.305 35.2003 568.305 39.1705C570.306 43.1406 571.306 48.0495 571.306 53.897V99H557.503V55.5589C557.503 50.4193 556.164 46.4029 553.487 43.5099C550.809 40.5862 547.131 39.1243 542.453 39.1243C539.252 39.1243 536.406 39.8168 533.913 41.2017C531.451 42.5866 529.496 44.6179 528.05 47.2955C526.634 49.9422 525.926 53.143 525.926 56.8977ZM619.548 127.068C613.916 127.068 609.069 126.33 605.006 124.852C600.975 123.375 597.682 121.421 595.127 118.989C592.573 116.558 590.665 113.896 589.403 111.003L601.267 106.109C602.098 107.464 603.206 108.895 604.591 110.403C606.007 111.942 607.915 113.25 610.315 114.327C612.747 115.404 615.871 115.942 619.687 115.942C624.919 115.942 629.243 114.665 632.659 112.111C636.075 109.587 637.783 105.555 637.783 100.016V86.0739H636.906C636.075 87.5819 634.875 89.2592 633.305 91.1058C631.767 92.9524 629.643 94.5528 626.935 95.907C624.226 97.2611 620.702 97.9382 616.363 97.9382C610.762 97.9382 605.714 96.6302 601.221 94.0142C596.758 91.3674 593.219 87.4742 590.603 82.3345C588.018 77.1641 586.725 70.8087 586.725 63.2685C586.725 55.7282 588.002 49.2651 590.557 43.8793C593.142 38.4934 596.681 34.3693 601.175 31.5071C605.668 28.6141 610.762 27.1676 616.455 27.1676C620.856 27.1676 624.411 27.9062 627.119 29.3835C629.828 30.83 631.936 32.5227 633.444 34.4616C634.983 36.4006 636.168 38.1087 636.999 39.5859H638.014V28.0909H651.54V100.57C651.54 106.663 650.125 111.665 647.293 115.573C644.462 119.482 640.63 122.375 635.798 124.252C630.997 126.129 625.58 127.068 619.548 127.068ZM619.41 86.4893C623.38 86.4893 626.735 85.5661 629.474 83.7195C632.244 81.8421 634.336 79.1645 635.752 75.6868C637.199 72.1783 637.922 67.9773 637.922 63.0838C637.922 58.3134 637.214 54.1125 635.798 50.4808C634.383 46.8492 632.305 44.0178 629.566 41.9865C626.827 39.9245 623.442 38.8935 619.41 38.8935C615.255 38.8935 611.793 39.9706 609.023 42.125C606.253 44.2486 604.16 47.1416 602.744 50.804C601.359 54.4664 600.667 58.5597 600.667 63.0838C600.667 67.7311 601.375 71.8089 602.79 75.3175C604.206 78.826 606.299 81.5651 609.069 83.5348C611.87 85.5045 615.317 86.4893 619.41 86.4893ZM704.457 99V28.0909H718.26V99H704.457ZM711.428 17.1499C709.027 17.1499 706.965 16.3497 705.242 14.7493C703.549 13.1181 702.703 11.1792 702.703 8.93252C702.703 6.65506 703.549 4.71614 705.242 3.11576C706.965 1.48461 709.027 0.669032 711.428 0.669032C713.828 0.669032 715.875 1.48461 717.568 3.11576C719.291 4.71614 720.153 6.65506 720.153 8.93252C720.153 11.1792 719.291 13.1181 717.568 14.7493C715.875 16.3497 713.828 17.1499 711.428 17.1499ZM750.633 56.8977V99H736.83V28.0909H750.079V39.6321H750.956C752.587 35.8774 755.142 32.8613 758.62 30.5838C762.128 28.3063 766.545 27.1676 771.869 27.1676C776.701 27.1676 780.933 28.1832 784.564 30.2145C788.196 32.215 791.012 35.2003 793.012 39.1705C795.013 43.1406 796.013 48.0495 796.013 53.897V99H782.21V55.5589C782.21 50.4193 780.871 46.4029 778.194 43.5099C775.516 40.5862 771.838 39.1243 767.16 39.1243C763.959 39.1243 761.113 39.8168 758.62 41.2017C756.158 42.5866 754.203 44.6179 752.757 47.2955C751.341 49.9422 750.633 53.143 750.633 56.8977ZM850.037 99V4.45454H864.302V45.5412H911.437V4.45454H925.748V99H911.437V57.7749H864.302V99H850.037ZM990.332 69.593V28.0909H1004.18V99H990.609V86.7202H989.871C988.239 90.5057 985.623 93.6603 982.023 96.1839C978.452 98.6768 974.005 99.9233 968.681 99.9233C964.126 99.9233 960.094 98.9231 956.586 96.9226C953.108 94.8913 950.369 91.8906 948.368 87.9205C946.399 83.9503 945.414 79.0414 945.414 73.1939V28.0909H959.217V71.532C959.217 76.3639 960.556 80.2109 963.233 83.0732C965.911 85.9354 969.389 87.3665 973.667 87.3665C976.252 87.3665 978.822 86.7202 981.376 85.4276C983.961 84.1349 986.1 82.1806 987.793 79.5646C989.517 76.9486 990.363 73.6248 990.332 69.593ZM1023.84 99V4.45454H1037.64V39.5859H1038.47C1039.27 38.1087 1040.42 36.4006 1041.93 34.4616C1043.44 32.5227 1045.53 30.83 1048.21 29.3835C1050.89 27.9062 1054.43 27.1676 1058.83 27.1676C1064.55 27.1676 1069.66 28.6141 1074.16 31.5071C1078.65 34.4001 1082.17 38.5703 1084.73 44.0178C1087.31 49.4652 1088.61 56.0206 1088.61 63.6839C1088.61 71.3473 1087.33 77.9181 1084.77 83.3963C1082.22 88.8437 1078.71 93.0447 1074.25 95.9993C1069.79 98.9231 1064.69 100.385 1058.97 100.385C1054.66 100.385 1051.14 99.6617 1048.4 98.2152C1045.69 96.7687 1043.56 95.076 1042.03 93.1371C1040.49 91.1982 1039.3 89.4747 1038.47 87.9666H1037.32V99H1023.84ZM1037.36 63.5455C1037.36 68.5312 1038.09 72.9015 1039.53 76.6562C1040.98 80.411 1043.07 83.3501 1045.81 85.4737C1048.55 87.5665 1051.9 88.6129 1055.87 88.6129C1060 88.6129 1063.45 87.5204 1066.22 85.3352C1068.99 83.1193 1071.08 80.1186 1072.49 76.3331C1073.94 72.5476 1074.66 68.285 1074.66 63.5455C1074.66 58.8674 1073.96 54.6664 1072.54 50.9425C1071.16 47.2185 1069.06 44.2794 1066.26 42.125C1063.49 39.9706 1060.03 38.8935 1055.87 38.8935C1051.87 38.8935 1048.49 39.9245 1045.72 41.9865C1042.98 44.0485 1040.9 46.9261 1039.49 50.6193C1038.07 54.3125 1037.36 58.6212 1037.36 63.5455ZM1104.11 99V28.0909H1117.91V99H1104.11ZM1111.08 17.1499C1108.68 17.1499 1106.61 16.3497 1104.89 14.7493C1103.2 13.1181 1102.35 11.1792 1102.35 8.93252C1102.35 6.65506 1103.2 4.71614 1104.89 3.11576C1106.61 1.48461 1108.68 0.669032 1111.08 0.669032C1113.48 0.669032 1115.52 1.48461 1117.22 3.11576C1118.94 4.71614 1119.8 6.65506 1119.8 8.93252C1119.8 11.1792 1118.94 13.1181 1117.22 14.7493C1115.52 16.3497 1113.48 17.1499 1111.08 17.1499ZM1169.58 28.0909V39.1705H1130.85V28.0909H1169.58ZM1141.23 11.1023H1155.04V78.1797C1155.04 80.8572 1155.44 82.8731 1156.24 84.2273C1157.04 85.5507 1158.07 86.4586 1159.33 86.951C1160.62 87.4126 1162.02 87.6435 1163.53 87.6435C1164.64 87.6435 1165.61 87.5665 1166.44 87.4126C1167.27 87.2588 1167.92 87.1357 1168.38 87.0433L1170.87 98.446C1170.07 98.7538 1168.93 99.0616 1167.45 99.3693C1165.98 99.7079 1164.13 99.8925 1161.92 99.9233C1158.28 99.9848 1154.9 99.3385 1151.76 97.9844C1148.62 96.6302 1146.08 94.5374 1144.14 91.706C1142.2 88.8745 1141.23 85.3198 1141.23 81.0419V11.1023ZM1205.48 100.57C1200.99 100.57 1196.93 99.7386 1193.3 98.0767C1189.66 96.384 1186.79 93.9373 1184.66 90.7365C1182.57 87.5357 1181.52 83.6117 1181.52 78.9645C1181.52 74.9635 1182.29 71.6705 1183.83 69.0852C1185.37 66.5 1187.45 64.4534 1190.06 62.9453C1192.68 61.4373 1195.6 60.2985 1198.84 59.5291C1202.07 58.7597 1205.36 58.175 1208.71 57.7749C1212.96 57.2824 1216.41 56.8823 1219.06 56.5746C1221.7 56.236 1223.63 55.6974 1224.83 54.9588C1226.03 54.2202 1226.63 53.0199 1226.63 51.358V51.0348C1226.63 47.0031 1225.49 43.8793 1223.21 41.6633C1220.96 39.4474 1217.61 38.3395 1213.15 38.3395C1208.5 38.3395 1204.84 39.3705 1202.16 41.4325C1199.51 43.4638 1197.68 45.7259 1196.67 48.2188L1183.69 45.2642C1185.23 40.9555 1187.48 37.4777 1190.43 34.831C1193.42 32.1534 1196.85 30.2145 1200.73 29.0142C1204.61 27.7831 1208.68 27.1676 1212.96 27.1676C1215.79 27.1676 1218.79 27.5062 1221.96 28.1832C1225.16 28.8295 1228.15 30.0298 1230.92 31.7841C1233.72 33.5383 1236.01 36.0466 1237.8 39.3089C1239.58 42.5405 1240.48 46.7415 1240.48 51.9119V99H1227V89.3054H1226.44C1225.55 91.0904 1224.21 92.8447 1222.43 94.5682C1220.64 96.2917 1218.35 97.7228 1215.55 98.8615C1212.75 100 1209.39 100.57 1205.48 100.57ZM1208.48 89.4901C1212.3 89.4901 1215.56 88.736 1218.27 87.228C1221.01 85.7199 1223.09 83.7502 1224.5 81.3189C1225.95 78.8568 1226.67 76.2254 1226.67 73.4247V64.2841C1226.18 64.7765 1225.23 65.2382 1223.81 65.669C1222.43 66.0691 1220.84 66.4231 1219.06 66.7308C1217.27 67.0078 1215.53 67.2694 1213.84 67.5156C1212.15 67.7311 1210.73 67.9157 1209.59 68.0696C1206.91 68.4081 1204.47 68.9775 1202.25 69.7777C1200.07 70.5779 1198.31 71.732 1196.99 73.2401C1195.7 74.7173 1195.05 76.687 1195.05 79.1491C1195.05 82.5653 1196.31 85.1506 1198.84 86.9048C1201.36 88.6283 1204.58 89.4901 1208.48 89.4901ZM1291.96 28.0909V39.1705H1253.23V28.0909H1291.96ZM1263.62 11.1023H1277.42V78.1797C1277.42 80.8572 1277.82 82.8731 1278.62 84.2273C1279.42 85.5507 1280.45 86.4586 1281.71 86.951C1283.01 87.4126 1284.41 87.6435 1285.91 87.6435C1287.02 87.6435 1287.99 87.5665 1288.82 87.4126C1289.65 87.2588 1290.3 87.1357 1290.76 87.0433L1293.25 98.446C1292.45 98.7538 1291.31 99.0616 1289.84 99.3693C1288.36 99.7079 1286.51 99.8925 1284.3 99.9233C1280.67 99.9848 1277.28 99.3385 1274.14 97.9844C1271 96.6302 1268.46 94.5374 1266.52 91.706C1264.59 88.8745 1263.62 85.3198 1263.62 81.0419V11.1023Z" fill="#234930"/>
</svg>
