<svg width="152" height="34" viewBox="0 0 152 34" fill="none" xmlns="http://www.w3.org/2000/svg">
<path d="M19.8769 12.79C21.6145 14.4716 22.4838 16.9646 22.4838 20.2698V30.6768C22.4838 32.1522 21.2874 33.3485 19.8121 33.3485C18.3367 33.3485 17.1403 32.1522 17.1403 30.6768V20.9535C17.1403 18.9595 16.6698 17.4557 15.7298 16.4449C14.7888 15.4332 13.45 14.9274 11.7124 14.9274C9.74592 14.9274 8.19298 15.5197 7.05356 16.7013C5.91317 17.8839 5.34346 19.5862 5.34346 21.809V30.6778C5.34346 32.1531 4.14708 33.3495 2.67173 33.3495C1.19639 33.3495 0 32.1531 0 30.6778V1.63452C2.95069 1.63452 5.34248 4.02631 5.34248 6.977V13.174C6.22552 12.234 7.31583 11.514 8.6124 11.016C9.90799 10.518 11.3539 10.2685 12.95 10.2685C15.8271 10.2685 18.1353 11.1093 19.8739 12.79H19.8769Z" fill="#265536"/>
<path d="M71.6902 11.7213C73.4426 12.6908 74.8168 14.0581 75.8147 15.8251C76.8117 17.5922 77.3107 19.6284 77.3107 21.9367C77.3107 24.245 76.8117 26.2891 75.8147 28.0699C74.8177 29.8507 73.4426 31.2259 71.6902 32.1944C69.9379 33.1639 67.9508 33.6472 65.728 33.6472C64.1603 33.6472 62.7291 33.3761 61.4326 32.8358C60.136 32.2946 59.0457 31.4823 58.1636 30.3998V30.8055C58.1636 32.2101 57.0252 33.3486 55.6206 33.3486C54.2159 33.3486 53.0775 32.2101 53.0775 30.8055V1.63452C56.0282 1.63452 58.42 4.02631 58.42 6.977V13.3027C59.3315 12.3057 60.4071 11.5504 61.6467 11.0376C62.8863 10.5249 64.2467 10.2685 65.728 10.2685C67.9508 10.2685 69.9379 10.7538 71.6902 11.7213ZM69.9811 27.1083C71.2482 25.798 71.8828 24.0731 71.8828 21.9367C71.8828 19.8003 71.2482 18.0755 69.9811 16.7652C68.713 15.4548 67.0962 14.7987 65.1298 14.7987C63.8479 14.7987 62.6938 15.0914 61.6683 15.6749C60.6428 16.2593 59.8305 17.0932 59.2323 18.1757C58.6341 19.2591 58.3345 20.5125 58.3345 21.9367C58.3345 23.361 58.6331 24.6153 59.2323 25.6978C59.8305 26.7812 60.6428 27.6142 61.6683 28.1976C62.6938 28.7821 63.8479 29.0738 65.1298 29.0738C67.0962 29.0738 68.713 28.4186 69.9811 27.1073V27.1083Z" fill="#265536"/>
<path d="M106.822 30.3782C107.271 31.5205 106.66 32.7974 105.493 33.1776C105.402 33.207 105.31 33.2355 105.216 33.262C104.318 33.5184 103.371 33.6471 102.374 33.6471C99.8663 33.6471 97.9283 32.9919 96.561 31.6806C95.1937 30.3703 94.5101 28.4618 94.5101 25.9531V14.9695H92.8854C91.7048 14.9695 90.748 14.0128 90.748 12.8322C90.748 11.6515 91.7048 10.6948 92.8854 10.6948H94.5101V5.47998H94.6378C97.5177 5.47998 99.8526 7.8148 99.8526 10.6948H103.828C105.008 10.6948 105.965 11.6515 105.965 12.8322C105.965 14.0128 105.008 14.9695 103.828 14.9695H99.8526V25.8254C99.8526 26.9363 100.123 27.785 100.664 28.3685C101.205 28.9529 101.989 29.2446 103.015 29.2446C103.473 29.2446 103.901 29.1985 104.3 29.1071C105.351 28.8655 106.427 29.3743 106.822 30.3782Z" fill="#B6CD62"/>
<path d="M151.852 30.3782C152.301 31.5205 151.69 32.7974 150.523 33.1776C150.433 33.207 150.341 33.2355 150.246 33.262C149.349 33.5184 148.402 33.6471 147.405 33.6471C144.897 33.6471 142.959 32.9919 141.592 31.6806C140.224 30.3703 139.541 28.4618 139.541 25.9531V14.9695H137.916C136.735 14.9695 135.779 14.0128 135.779 12.8322C135.779 11.6515 136.735 10.6948 137.916 10.6948H139.541V5.47998H139.668C142.548 5.47998 144.883 7.8148 144.883 10.6948H148.858C150.039 10.6948 150.996 11.6515 150.996 12.8322C150.996 14.0128 150.039 14.9695 148.858 14.9695H144.883V25.8254C144.883 26.9363 145.153 27.785 145.695 28.3685C146.236 28.9529 147.02 29.2446 148.046 29.2446C148.504 29.2446 148.932 29.1985 149.331 29.1071C150.382 28.8655 151.457 29.3743 151.852 30.3782Z" fill="#B6CD62"/>
<path d="M81.6887 5.84456C81.0325 5.23262 80.7054 4.47039 80.7054 3.55788C80.7054 2.64536 81.0325 1.88412 81.6887 1.27119C82.3438 0.659246 83.1562 0.352783 84.1247 0.352783C85.0932 0.352783 85.9045 0.645495 86.5607 1.22895C87.2158 1.81241 87.5439 2.54714 87.5439 3.4292C87.5439 4.3702 87.2237 5.16092 86.5823 5.80135C85.9409 6.44276 85.1217 6.76297 84.1247 6.76297C83.1277 6.76297 82.3438 6.45749 81.6887 5.84358V5.84456ZM84.1031 10.524C85.5784 10.524 86.7748 11.7204 86.7748 13.1958V30.6769C86.7748 32.1523 85.5784 33.3487 84.1031 33.3487C82.6277 33.3487 81.4313 32.1523 81.4313 30.6769V13.1958C81.4313 11.7204 82.6277 10.524 84.1031 10.524Z" fill="#B6CD62"/>
<path d="M120.358 10.2473C121.84 10.2473 123.199 10.5037 124.439 11.0164C125.678 11.5292 126.754 12.2845 127.666 13.2815V13.1744C127.666 11.6991 128.862 10.5027 130.337 10.5027C131.813 10.5027 133.009 11.6991 133.009 13.1744V30.7833C133.009 32.1879 131.871 33.3264 130.466 33.3264C129.061 33.3264 127.923 32.1879 127.923 30.7833V30.3776C127.04 31.4611 125.951 32.2734 124.654 32.8136C123.357 33.3539 121.926 33.625 120.359 33.625C118.136 33.625 116.149 33.1407 114.396 32.1722C112.644 31.2037 111.27 29.8286 110.272 28.0477C109.275 26.2669 108.776 24.2218 108.776 21.9145C108.776 19.6062 109.275 17.569 110.272 15.8029C111.269 14.0359 112.644 12.6686 114.396 11.6991C116.149 10.7306 118.136 10.2463 120.359 10.2463L120.358 10.2473ZM120.956 29.0526C122.238 29.0526 123.392 28.7608 124.417 28.1764C125.443 27.5929 126.255 26.759 126.853 25.6766C127.451 24.5941 127.751 23.3408 127.751 21.9155C127.751 20.4912 127.452 19.2379 126.853 18.1545C126.255 17.072 125.443 16.2381 124.417 15.6536C123.392 15.0702 122.238 14.7775 120.956 14.7775C118.989 14.7775 117.373 15.4336 116.104 16.7439C114.837 18.0553 114.203 19.7791 114.203 21.9155C114.203 24.0529 114.837 25.7768 116.104 27.0871C117.373 28.3984 118.989 29.0536 120.956 29.0536V29.0526Z" fill="#B6CD62"/>
<path d="M48.4805 13.1952V30.804C48.4805 32.2087 47.342 33.3471 45.9374 33.3471C44.5328 33.3471 43.3944 32.2087 43.3944 30.804V30.4406C42.5398 31.4661 41.4711 32.2568 40.1883 32.8127C38.9064 33.3687 37.5234 33.6457 36.0422 33.6457C32.9933 33.6457 30.5926 32.799 28.8403 31.1026C27.088 29.4073 26.2118 26.8927 26.2118 23.5599V13.1952C26.2118 11.7198 27.4082 10.5234 28.8835 10.5234C30.3589 10.5234 31.5553 11.7198 31.5553 13.1952V22.833C31.5553 24.885 32.0179 26.4173 32.9442 27.428C33.8694 28.4397 35.1886 28.9456 36.8977 28.9456C38.8063 28.9456 40.3238 28.3543 41.4495 27.1717C42.5752 25.99 43.138 24.2868 43.138 22.0639V13.1952C43.138 11.7198 44.3344 10.5234 45.8097 10.5234C47.2851 10.5234 48.4815 11.7198 48.4815 13.1952H48.4805Z" fill="#265536"/>
</svg>
