<svg width="23" height="22" viewBox="0 0 23 22" fill="none" xmlns="http://www.w3.org/2000/svg">
<path fill-rule="evenodd" clip-rule="evenodd" d="M7.3026 0.5C5.59705 0.5 3.96136 1.17753 2.75536 2.38353C1.54935 3.58953 0.871826 5.22522 0.871826 6.93077L0.871826 15.5051C0.871826 17.2107 1.54935 18.8464 2.75536 20.0524C3.96136 21.2584 5.59705 21.9359 7.3026 21.9359H15.877C17.5825 21.9359 19.2182 21.2584 20.4242 20.0524C21.6302 18.8464 22.3077 17.2107 22.3077 15.5051V6.93077C22.3077 5.22522 21.6302 3.58953 20.4242 2.38353C19.2182 1.17753 17.5825 0.5 15.877 0.5L7.3026 0.5ZM6.58807 11.2179C6.58807 9.89141 7.11503 8.61921 8.05303 7.68121C8.99104 6.7432 10.2632 6.21624 11.5898 6.21624C12.9163 6.21624 14.1885 6.7432 15.1265 7.68121C16.0645 8.61921 16.5915 9.89141 16.5915 11.2179C16.5915 12.5445 16.0645 13.8167 15.1265 14.7547C14.1885 15.6927 12.9163 16.2197 11.5898 16.2197C10.2632 16.2197 8.99104 15.6927 8.05303 14.7547C7.11503 13.8167 6.58807 12.5445 6.58807 11.2179ZM16.5915 6.21624H18.0205V4.78718H16.5915V6.21624Z" fill="#234930"/>
<path d="M11.5898 7.26929C10.5425 7.26929 9.53813 7.68531 8.7976 8.42584C8.05708 9.16637 7.64105 10.1707 7.64105 11.218C7.64105 12.2653 8.05708 13.2696 8.7976 14.0102C9.53813 14.7507 10.5425 15.1667 11.5898 15.1667C12.637 15.1667 13.6414 14.7507 14.3819 14.0102C15.1225 13.2696 15.5385 12.2653 15.5385 11.218C15.5385 10.1707 15.1225 9.16637 14.3819 8.42584C13.6414 7.68531 12.637 7.26929 11.5898 7.26929Z" fill="#234930"/>
</svg>
