<svg width="66" height="66" viewBox="0 0 66 66" fill="none" xmlns="http://www.w3.org/2000/svg">
<rect width="66" height="66" rx="6" fill="#30583E"/>
<path d="M50.2454 39.5648C50.3901 39.1767 50.1928 38.7447 49.8047 38.6C49.4165 38.4553 48.9846 38.6526 48.8399 39.0408L50.2454 39.5648ZM41.2128 48.6969L41.5571 49.3632L41.2128 48.6969ZM18.5771 42.6695L17.9471 43.0764L17.9471 43.0764L18.5771 42.6695ZM16.022 30.3769L15.282 30.2548L16.022 30.3769ZM22.3922 19.5578L21.9264 18.9699L22.3922 19.5578ZM34.3808 15.8284L34.3307 16.5768L34.3808 15.8284ZM45.7642 21.125L45.2241 21.6453L45.7642 21.125ZM50.1186 33.2437C50.42 33.5277 50.8947 33.5136 51.1788 33.2122L55.808 28.2996C56.092 27.9982 56.078 27.5235 55.7765 27.2394C55.475 26.9554 55.0004 26.9695 54.7163 27.2709L50.6015 31.6376L46.2348 27.5228C45.9333 27.2387 45.4586 27.2528 45.1746 27.5543C44.8905 27.8557 44.9046 28.3304 45.206 28.6145L50.1186 33.2437ZM48.8399 39.0408C47.3921 42.9237 44.5504 46.1285 40.8686 48.0305L41.5571 49.3632C45.5701 47.2901 48.6674 43.797 50.2454 39.5648L48.8399 39.0408ZM40.8686 48.0305C37.1868 49.9326 32.9287 50.3955 28.9241 49.3292L28.5381 50.7787C32.9029 51.9409 37.5441 51.4363 41.5571 49.3632L40.8686 48.0305ZM28.9241 49.3292C24.9196 48.2629 21.4555 45.7437 19.2071 42.2626L17.9471 43.0764C20.3977 46.8706 24.1734 49.6164 28.5381 50.7787L28.9241 49.3292ZM19.2071 42.2626C16.9587 38.7814 16.087 34.5879 16.762 30.4991L15.282 30.2548C14.5464 34.7113 15.4964 39.2821 17.9471 43.0764L19.2071 42.2626ZM16.762 30.4991C17.4369 26.4103 19.6101 22.7194 22.858 20.1456L21.9264 18.9699C18.3864 21.7753 16.0177 25.7982 15.282 30.2548L16.762 30.4991ZM22.858 20.1456C26.106 17.5718 30.1959 16.2995 34.3307 16.5768L34.431 15.0801C29.9243 14.7779 25.4665 16.1646 21.9264 18.9699L22.858 20.1456ZM34.3307 16.5768C38.4655 16.854 42.3489 18.6609 45.2241 21.6453L46.3043 20.6046C43.1705 17.3518 38.9378 15.3823 34.431 15.0801L34.3307 16.5768ZM45.2241 21.6453C48.0993 24.6298 49.7603 28.5778 49.8833 32.7201L51.3826 32.6756C51.2485 28.1607 49.4382 23.8575 46.3043 20.6046L45.2241 21.6453Z" fill="#CDDF87"/>
</svg>
