<svg width="66" height="66" viewBox="0 0 66 66" fill="none" xmlns="http://www.w3.org/2000/svg">
<rect width="66" height="66" rx="6" fill="#D3E5DA" fill-opacity="0.85"/>
<mask id="path-2-inside-1_2089_460" fill="white">
<path fill-rule="evenodd" clip-rule="evenodd" d="M25.6353 27.946C24.5307 27.946 23.6353 28.8415 23.6353 29.946V32.1082H22.5137C21.4091 32.1082 20.5137 33.0036 20.5137 34.1082V49.8785C20.5137 50.983 21.4091 51.8785 22.5137 51.8785H43.4866C44.5912 51.8785 45.4866 50.983 45.4866 49.8785V34.1082C45.4866 33.0036 44.5912 32.1082 43.4866 32.1082H42.365V29.946C42.365 28.8415 41.4696 27.946 40.365 27.946H25.6353Z"/>
</mask>
<path d="M23.6353 32.1082V33.6082H25.1353V32.1082H23.6353ZM42.365 32.1082H40.865V33.6082H42.365V32.1082ZM25.1353 29.946C25.1353 29.6699 25.3591 29.446 25.6353 29.446V26.446C23.7023 26.446 22.1353 28.013 22.1353 29.946H25.1353ZM25.1353 32.1082V29.946H22.1353V32.1082H25.1353ZM22.5137 33.6082H23.6353V30.6082H22.5137V33.6082ZM22.0137 34.1082C22.0137 33.8321 22.2375 33.6082 22.5137 33.6082V30.6082C20.5807 30.6082 19.0137 32.1752 19.0137 34.1082H22.0137ZM22.0137 49.8785V34.1082H19.0137V49.8785H22.0137ZM22.5137 50.3785C22.2375 50.3785 22.0137 50.1546 22.0137 49.8785H19.0137C19.0137 51.8115 20.5807 53.3785 22.5137 53.3785V50.3785ZM43.4866 50.3785H22.5137V53.3785H43.4866V50.3785ZM43.9866 49.8785C43.9866 50.1546 43.7628 50.3785 43.4866 50.3785V53.3785C45.4196 53.3785 46.9866 51.8115 46.9866 49.8785H43.9866ZM43.9866 34.1082V49.8785H46.9866V34.1082H43.9866ZM43.4866 33.6082C43.7628 33.6082 43.9866 33.8321 43.9866 34.1082H46.9866C46.9866 32.1752 45.4196 30.6082 43.4866 30.6082V33.6082ZM42.365 33.6082H43.4866V30.6082H42.365V33.6082ZM40.865 29.946V32.1082H43.865V29.946H40.865ZM40.365 29.446C40.6412 29.446 40.865 29.6699 40.865 29.946H43.865C43.865 28.013 42.298 26.446 40.365 26.446V29.446ZM25.6353 29.446H40.365V26.446H25.6353V29.446Z" fill="#234930" mask="url(#path-2-inside-1_2089_460)"/>
<rect x="31.9595" y="13.3784" width="1.35271" height="10.4054" rx="0.676353" fill="#234930"/>
<rect x="24.3086" y="13.7664" width="1.3527" height="10.4054" rx="0.676351" transform="rotate(-16 24.3086 13.7664)" fill="#234930"/>
<rect width="1.3527" height="10.4054" rx="0.676351" transform="matrix(-0.961262 -0.275637 -0.275637 0.961262 41.3306 13.7664)" fill="#234930"/>
</svg>
