<svg width="138" height="43" viewBox="0 0 138 43" fill="none" xmlns="http://www.w3.org/2000/svg">
<g clip-path="url(#clip0_2067_427)">
<path d="M18.0445 11.899C19.6221 13.4402 20.4114 15.725 20.4114 18.7544V28.2925C20.4114 29.6446 19.3252 30.7411 17.9857 30.7411C16.6462 30.7411 15.56 29.6446 15.56 28.2925V19.3809C15.56 17.5534 15.1328 16.1752 14.2794 15.2488C13.425 14.3216 12.2095 13.8579 10.6319 13.8579C8.84656 13.8579 7.43664 14.4008 6.40215 15.4838C5.36678 16.5677 4.84954 18.1278 4.84954 20.165V28.2934C4.84954 29.6455 3.76333 30.742 2.42385 30.742C1.08438 30.742 -0.00183105 29.6455 -0.00183105 28.2934V1.67493C2.67712 1.67493 4.84864 3.86702 4.84864 6.57136V12.251C5.65037 11.3895 6.64026 10.7296 7.81743 10.2732C8.99371 9.81674 10.3064 9.58807 11.7556 9.58807C14.3677 9.58807 16.4634 10.3587 18.0419 11.899H18.0445Z" fill="#234930"/>
<path d="M65.0868 10.9195C66.6778 11.8081 67.9254 13.0612 68.8315 14.6808C69.7366 16.3003 70.1897 18.1665 70.1897 20.2821C70.1897 22.3977 69.7366 24.2711 68.8315 25.9032C67.9263 27.5353 66.6778 28.7957 65.0868 29.6833C63.4958 30.5719 61.6917 31.0148 59.6736 31.0148C58.2503 31.0148 56.951 30.7663 55.7738 30.2712C54.5966 29.7752 53.6067 29.0307 52.8059 28.0386V28.4104C52.8059 29.6977 51.7723 30.7411 50.497 30.7411C49.2218 30.7411 48.1882 29.6977 48.1882 28.4104V1.67493C50.8671 1.67493 53.0386 3.86702 53.0386 6.57136V12.3689C53.8662 11.4552 54.8428 10.7629 55.9682 10.293C57.0936 9.82304 58.3288 9.58807 59.6736 9.58807C61.6917 9.58807 63.4958 10.0328 65.0868 10.9195ZM63.5351 25.0219C64.6855 23.8209 65.2616 22.2401 65.2616 20.2821C65.2616 18.324 64.6855 16.7432 63.5351 15.5423C62.3838 14.3414 60.9159 13.74 59.1305 13.74C57.9667 13.74 56.9189 14.0083 55.9878 14.543C55.0568 15.0787 54.3193 15.843 53.7762 16.835C53.2331 17.828 52.9611 18.9767 52.9611 20.2821C52.9611 21.5874 53.2322 22.737 53.7762 23.7291C54.3193 24.7221 55.0568 25.4855 55.9878 26.0202C56.9189 26.5559 57.9667 26.8233 59.1305 26.8233C60.9159 26.8233 62.3838 26.2228 63.5351 25.021V25.0219Z" fill="#234930"/>
<path d="M96.9827 28.0188C97.3903 29.0658 96.8356 30.2361 95.7761 30.5845C95.6941 30.6115 95.6103 30.6376 95.5247 30.6619C94.7096 30.8969 93.8499 31.0148 92.9447 31.0148C90.6679 31.0148 88.9084 30.4143 87.667 29.2125C86.4257 28.0116 85.805 26.2624 85.805 23.9632V13.8967H84.33C83.258 13.8967 82.3894 13.0198 82.3894 11.9377C82.3894 10.8556 83.258 9.9788 84.33 9.9788H85.805V5.1994H85.9209C88.5357 5.1994 90.6555 7.33928 90.6555 9.9788H94.2646C95.3365 9.9788 96.2051 10.8556 96.2051 11.9377C96.2051 13.0198 95.3365 13.8967 94.2646 13.8967H90.6555V23.8462C90.6555 24.8643 90.9007 25.6421 91.3921 26.1769C91.8835 26.7125 92.5951 26.9799 93.527 26.9799C93.9426 26.9799 94.3314 26.9376 94.6935 26.8539C95.6477 26.6324 96.6242 27.0987 96.9827 28.0188Z" fill="#234930"/>
<path d="M137.866 28.0188C138.274 29.0658 137.719 30.2361 136.66 30.5845C136.578 30.6115 136.494 30.6376 136.408 30.6619C135.593 30.8969 134.733 31.0148 133.828 31.0148C131.551 31.0148 129.792 30.4143 128.551 29.2125C127.309 28.0116 126.688 26.2624 126.688 23.9632V13.8967H125.213C124.141 13.8967 123.273 13.0198 123.273 11.9377C123.273 10.8556 124.141 9.9788 125.213 9.9788H126.688V5.1994H126.804C129.419 5.1994 131.539 7.33928 131.539 9.9788H135.148C136.22 9.9788 137.089 10.8556 137.089 11.9377C137.089 13.0198 136.22 13.8967 135.148 13.8967H131.539V23.8462C131.539 24.8643 131.784 25.6421 132.276 26.1769C132.767 26.7125 133.479 26.9799 134.411 26.9799C134.826 26.9799 135.215 26.9376 135.577 26.8539C136.531 26.6324 137.508 27.0987 137.866 28.0188Z" fill="#234930"/>
<path d="M74.1635 5.53339C73.5678 4.97254 73.2708 4.27395 73.2708 3.43762C73.2708 2.60129 73.5678 1.9036 74.1635 1.34185C74.7583 0.780998 75.4958 0.500122 76.3752 0.500122C77.2545 0.500122 77.9911 0.768395 78.5868 1.30314C79.1816 1.83789 79.4795 2.51127 79.4795 3.31969C79.4795 4.18212 79.1888 4.90682 78.6064 5.49378C78.0241 6.08164 77.2803 6.37512 76.3752 6.37512C75.47 6.37512 74.7583 6.09514 74.1635 5.53249V5.53339ZM76.3555 9.82215C77.695 9.82215 78.7812 10.9187 78.7812 12.2708V28.2925C78.7812 29.6446 77.695 30.7411 76.3555 30.7411C75.0161 30.7411 73.9299 29.6446 73.9299 28.2925V12.2708C73.9299 10.9187 75.0161 9.82215 76.3555 9.82215Z" fill="#234930"/>
<path d="M109.272 9.56828C110.617 9.56828 111.852 9.80325 112.977 10.2732C114.103 10.7431 115.079 11.4354 115.907 12.3491V12.251C115.907 10.8988 116.993 9.80235 118.332 9.80235C119.672 9.80235 120.758 10.8988 120.758 12.251V28.3897C120.758 29.677 119.724 30.7204 118.449 30.7204C117.174 30.7204 116.14 29.677 116.14 28.3897V28.0179C115.339 29.0109 114.35 29.7554 113.172 30.2505C111.995 30.7456 110.696 30.9941 109.273 30.9941C107.254 30.9941 105.45 30.5503 103.859 29.6626C102.268 28.775 101.021 27.5147 100.115 25.8825C99.2096 24.2504 98.7565 22.3761 98.7565 20.2614C98.7565 18.1458 99.2096 16.2787 100.115 14.6601C101.02 13.0405 102.268 11.7874 103.859 10.8988C105.45 10.0112 107.254 9.56738 109.273 9.56738L109.272 9.56828ZM109.815 26.8035C110.979 26.8035 112.026 26.5361 112.957 26.0004C113.889 25.4657 114.626 24.7014 115.169 23.7093C115.712 22.7173 115.984 21.5685 115.984 20.2623C115.984 18.9569 115.713 17.8082 115.169 16.8152C114.626 15.8232 113.889 15.0589 112.957 14.5232C112.026 13.9885 110.979 13.7202 109.815 13.7202C108.029 13.7202 106.562 14.3216 105.41 15.5225C104.26 16.7243 103.684 18.3043 103.684 20.2623C103.684 22.2212 104.26 23.8011 105.41 25.0021C106.562 26.2039 108.029 26.8044 109.815 26.8044V26.8035Z" fill="#234930"/>
<path d="M44.0146 12.2708V28.4095C44.0146 29.6968 42.981 30.7402 41.7057 30.7402C40.4305 30.7402 39.3969 29.6968 39.3969 28.4095V28.0764C38.621 29.0163 37.6507 29.7409 36.4861 30.2505C35.3223 30.76 34.0666 31.0139 32.7218 31.0139C29.9536 31.0139 27.7741 30.2379 26.1831 28.6832C24.5922 27.1293 23.7967 24.8247 23.7967 21.7702V12.2708C23.7967 10.9186 24.8829 9.82214 26.2224 9.82214C27.5619 9.82214 28.6481 10.9186 28.6481 12.2708V21.104C28.6481 22.9846 29.0681 24.389 29.9091 25.3153C30.7491 26.2426 31.9468 26.7062 33.4985 26.7062C35.2313 26.7062 36.6091 26.1643 37.6311 25.0804C38.6531 23.9974 39.1641 22.4364 39.1641 20.3991V12.2708C39.1641 10.9186 40.2503 9.82214 41.5898 9.82214C42.9293 9.82214 44.0155 10.9186 44.0155 12.2708H44.0146Z" fill="#234930"/>
</g>
<defs>
<clipPath id="clip0_2067_427">
<rect width="138" height="42" fill="white" transform="translate(0 0.500122)"/>
</clipPath>
</defs>
</svg>
