<svg width="66" height="66" viewBox="0 0 66 66" fill="none" xmlns="http://www.w3.org/2000/svg">
<rect width="66" height="66" rx="6" fill="#30583E"/>
<mask id="path-2-inside-1_195_1883" fill="white">
<path fill-rule="evenodd" clip-rule="evenodd" d="M25.6351 27.9459C24.5305 27.9459 23.6351 28.8414 23.6351 29.9459V32.1081H22.5135C21.4089 32.1081 20.5135 33.0035 20.5135 34.1081V49.8784C20.5135 50.9829 21.4089 51.8784 22.5135 51.8784H43.4865C44.591 51.8784 45.4865 50.9829 45.4865 49.8784V34.1081C45.4865 33.0035 44.591 32.1081 43.4865 32.1081H42.3648V29.9459C42.3648 28.8414 41.4694 27.9459 40.3648 27.9459H25.6351Z"/>
</mask>
<path d="M23.6351 32.1081V33.6081H25.1351V32.1081H23.6351ZM42.3648 32.1081H40.8648V33.6081H42.3648V32.1081ZM25.1351 29.9459C25.1351 29.6698 25.359 29.4459 25.6351 29.4459V26.4459C23.7021 26.4459 22.1351 28.0129 22.1351 29.9459H25.1351ZM25.1351 32.1081V29.9459H22.1351V32.1081H25.1351ZM22.5135 33.6081H23.6351V30.6081H22.5135V33.6081ZM22.0135 34.1081C22.0135 33.8319 22.2373 33.6081 22.5135 33.6081V30.6081C20.5805 30.6081 19.0135 32.1751 19.0135 34.1081H22.0135ZM22.0135 49.8784V34.1081H19.0135V49.8784H22.0135ZM22.5135 50.3784C22.2373 50.3784 22.0135 50.1545 22.0135 49.8784H19.0135C19.0135 51.8113 20.5805 53.3784 22.5135 53.3784V50.3784ZM43.4865 50.3784H22.5135V53.3784H43.4865V50.3784ZM43.9865 49.8784C43.9865 50.1545 43.7626 50.3784 43.4865 50.3784V53.3784C45.4195 53.3784 46.9865 51.8113 46.9865 49.8784H43.9865ZM43.9865 34.1081V49.8784H46.9865V34.1081H43.9865ZM43.4865 33.6081C43.7626 33.6081 43.9865 33.8319 43.9865 34.1081H46.9865C46.9865 32.1751 45.4195 30.6081 43.4865 30.6081V33.6081ZM42.3648 33.6081H43.4865V30.6081H42.3648V33.6081ZM40.8648 29.9459V32.1081H43.8648V29.9459H40.8648ZM40.3648 29.4459C40.641 29.4459 40.8648 29.6698 40.8648 29.9459H43.8648C43.8648 28.0129 42.2978 26.4459 40.3648 26.4459V29.4459ZM25.6351 29.4459H40.3648V26.4459H25.6351V29.4459Z" fill="#CDDF87" mask="url(#path-2-inside-1_195_1883)"/>
<rect x="31.9594" y="13.3784" width="1.35271" height="10.4054" rx="0.676353" fill="#CDDF87"/>
<rect x="24.3083" y="13.7663" width="1.3527" height="10.4054" rx="0.676351" transform="rotate(-16 24.3083 13.7663)" fill="#CDDF87"/>
<rect width="1.3527" height="10.4054" rx="0.676351" transform="matrix(-0.961262 -0.275637 -0.275637 0.961262 41.3305 13.7663)" fill="#CDDF87"/>
</svg>
