<svg width="66" height="66" viewBox="0 0 66 66" fill="none" xmlns="http://www.w3.org/2000/svg">
<rect width="66" height="66" rx="6" fill="#30583E"/>
<mask id="path-2-inside-1_404_256" fill="white">
<path fill-rule="evenodd" clip-rule="evenodd" d="M43.9096 35.3939C45.4642 33.2081 46.3784 30.5351 46.3784 27.6486C46.3784 20.26 40.3887 14.2703 33 14.2703C25.6113 14.2703 19.6216 20.26 19.6216 27.6486C19.6216 30.5351 20.5358 33.2081 22.0903 35.3939H22.0861L33.3521 52.2929L43.9139 35.3939H43.9096Z"/>
</mask>
<path d="M43.9096 35.3939L42.6873 34.5245L41.0021 36.8939H43.9096V35.3939ZM22.0903 35.3939V36.8939H24.9979L23.3127 34.5245L22.0903 35.3939ZM22.0861 35.3939V33.8939H19.2833L20.838 36.226L22.0861 35.3939ZM33.3521 52.2929L32.104 53.125L33.3927 55.0581L34.6241 53.0879L33.3521 52.2929ZM43.9139 35.3939L45.1859 36.1889L46.6203 33.8939H43.9139V35.3939ZM44.8784 27.6486C44.8784 30.2134 44.0672 32.5843 42.6873 34.5245L45.132 36.2633C46.8612 33.832 47.8784 30.8569 47.8784 27.6486H44.8784ZM33 15.7703C39.5602 15.7703 44.8784 21.0884 44.8784 27.6486H47.8784C47.8784 19.4315 41.2171 12.7703 33 12.7703V15.7703ZM21.1216 27.6486C21.1216 21.0884 26.4397 15.7703 33 15.7703V12.7703C24.7829 12.7703 18.1216 19.4315 18.1216 27.6486H21.1216ZM23.3127 34.5245C21.9328 32.5843 21.1216 30.2134 21.1216 27.6486H18.1216C18.1216 30.8569 19.1388 33.832 20.868 36.2633L23.3127 34.5245ZM22.0861 36.8939H22.0903V33.8939H22.0861V36.8939ZM34.6001 51.4609L23.3341 34.5619L20.838 36.226L32.104 53.125L34.6001 51.4609ZM42.6419 34.5989L32.0801 51.4979L34.6241 53.0879L45.1859 36.1889L42.6419 34.5989ZM43.9096 36.8939H43.9139V33.8939H43.9096V36.8939Z" fill="#CDDF87" mask="url(#path-2-inside-1_404_256)"/>
<path d="M37.1789 28.3528C37.1789 30.6607 35.3079 32.5316 33 32.5316C30.6921 32.5316 28.8211 30.6607 28.8211 28.3528C28.8211 26.0448 30.6921 24.1739 33 24.1739C35.3079 24.1739 37.1789 26.0448 37.1789 28.3528Z" stroke="#CDDF87" stroke-width="1.5"/>
</svg>
