<svg width="143" height="32" viewBox="0 0 143 32" fill="none" xmlns="http://www.w3.org/2000/svg">
<path d="M18.7 12.0394C20.3347 13.6214 21.1525 15.9668 21.1525 19.0763V28.8671C21.1525 30.2551 20.027 31.3806 18.639 31.3806C17.251 31.3806 16.1254 30.2551 16.1254 28.8671V19.7195C16.1254 17.8436 15.6828 16.4288 14.7984 15.4779C13.9132 14.5261 12.6536 14.0502 11.0189 14.0502C9.16886 14.0502 7.70787 14.6074 6.63592 15.7191C5.56304 16.8317 5.02707 18.4332 5.02707 20.5244V28.868C5.02707 30.256 3.90152 31.3816 2.51354 31.3816C1.12555 31.3816 0 30.256 0 28.868V1.54443C2.77598 1.54443 5.02615 3.7946 5.02615 6.57058V12.4007C5.85691 11.5163 6.88265 10.839 8.10245 10.3705C9.32133 9.90194 10.6816 9.66722 12.1833 9.66722C14.8899 9.66722 17.0615 10.4582 18.6972 12.0394H18.7Z" fill="white"/>
<path d="M67.4455 11.034C69.0941 11.946 70.3869 13.2324 71.3257 14.8948C72.2637 16.5573 72.7331 18.4729 72.7331 20.6445C72.7331 22.8162 72.2637 24.7392 71.3257 26.4146C70.3878 28.09 69.0941 29.3837 67.4455 30.2948C65.7969 31.2069 63.9274 31.6616 61.8362 31.6616C60.3614 31.6616 59.015 31.4065 57.7952 30.8983C56.5754 30.3891 55.5496 29.6249 54.7198 28.6065V28.9882C54.7198 30.3096 53.6487 31.3807 52.3273 31.3807C51.0058 31.3807 49.9348 30.3096 49.9348 28.9882V1.54443C52.7108 1.54443 54.961 3.7946 54.961 6.57058V12.5217C55.8185 11.5838 56.8304 10.8732 57.9966 10.3908C59.1628 9.90841 60.4427 9.66722 61.8362 9.66722C63.9274 9.66722 65.7969 10.1237 67.4455 11.034ZM65.8375 25.5099C67.0296 24.2771 67.6266 22.6544 67.6266 20.6445C67.6266 18.6346 67.0296 17.0119 65.8375 15.7792C64.6445 14.5464 63.1235 13.9291 61.2734 13.9291C60.0675 13.9291 58.9817 14.2045 58.0169 14.7534C57.0522 15.3033 56.288 16.0878 55.7252 17.1062C55.1624 18.1255 54.8806 19.3046 54.8806 20.6445C54.8806 21.9845 55.1615 23.1645 55.7252 24.1829C56.288 25.2022 57.0522 25.9858 58.0169 26.5347C58.9817 27.0845 60.0675 27.359 61.2734 27.359C63.1235 27.359 64.6445 26.7426 65.8375 25.509V25.5099Z" fill="white"/>
<path d="M100.497 28.586C100.919 29.6608 100.344 30.8621 99.2463 31.2197C99.1613 31.2474 99.0744 31.2742 98.9857 31.2992C98.1411 31.5404 97.2503 31.6614 96.3123 31.6614C93.9531 31.6614 92.1299 31.0451 90.8435 29.8114C89.5572 28.5786 88.914 26.7831 88.914 24.423V14.0898H87.3856C86.2748 14.0898 85.3748 13.1897 85.3748 12.079C85.3748 10.9682 86.2748 10.0681 87.3856 10.0681H88.914V5.16211H89.0342C91.7436 5.16211 93.9402 7.35868 93.9402 10.0681H97.68C98.7908 10.0681 99.6908 10.9682 99.6908 12.079C99.6908 13.1897 98.7908 14.0898 97.68 14.0898H93.9402V24.3029C93.9402 25.348 94.1943 26.1464 94.7035 26.6953C95.2127 27.2452 95.9501 27.5196 96.9158 27.5196C97.3464 27.5196 97.7493 27.4762 98.1245 27.3903C99.1133 27.1629 100.125 27.6416 100.497 28.586Z" fill="white"/>
<path d="M142.861 28.586C143.283 29.6608 142.708 30.8621 141.611 31.2197C141.526 31.2474 141.439 31.2742 141.35 31.2992C140.505 31.5404 139.615 31.6614 138.677 31.6614C136.317 31.6614 134.494 31.0451 133.208 29.8114C131.921 28.5786 131.278 26.7831 131.278 24.423V14.0898H129.75C128.639 14.0898 127.739 13.1897 127.739 12.079C127.739 10.9682 128.639 10.0681 129.75 10.0681H131.278V5.16211H131.398C134.108 5.16211 136.304 7.35868 136.304 10.0681H140.044C141.155 10.0681 142.055 10.9682 142.055 12.079C142.055 13.1897 141.155 14.0898 140.044 14.0898H136.304V24.3029C136.304 25.348 136.559 26.1464 137.068 26.6953C137.577 27.2452 138.314 27.5196 139.28 27.5196C139.711 27.5196 140.114 27.4762 140.489 27.3903C141.478 27.1629 142.489 27.6416 142.861 28.586Z" fill="white"/>
<path d="M76.8518 5.50523C76.2345 4.92952 75.9268 4.21243 75.9268 3.35394C75.9268 2.49546 76.2345 1.77929 76.8518 1.20265C77.4681 0.62694 78.2324 0.338623 79.1435 0.338623C80.0547 0.338623 80.818 0.614003 81.4353 1.16291C82.0517 1.71183 82.3603 2.40305 82.3603 3.23289C82.3603 4.11817 82.059 4.86206 81.4556 5.46457C80.8522 6.06801 80.0815 6.36926 79.1435 6.36926C78.2056 6.36926 77.4681 6.08187 76.8518 5.50431V5.50523ZM79.1232 9.90762C80.5112 9.90762 81.6367 11.0332 81.6367 12.4212V28.8673C81.6367 30.2552 80.5112 31.3808 79.1232 31.3808C77.7352 31.3808 76.6097 30.2552 76.6097 28.8673V12.4212C76.6097 11.0332 77.7352 9.90762 79.1232 9.90762Z" fill="white"/>
<path d="M113.231 9.64741C114.626 9.64741 115.905 9.8886 117.071 10.371C118.237 10.8534 119.249 11.564 120.106 12.5019V12.4012C120.106 11.0132 121.232 9.88767 122.62 9.88767C124.008 9.88767 125.134 11.0132 125.134 12.4012V28.9674C125.134 30.2889 124.062 31.3599 122.741 31.3599C121.42 31.3599 120.349 30.2889 120.349 28.9674V28.5858C119.518 29.6051 118.493 30.3693 117.273 30.8775C116.053 31.3858 114.707 31.6408 113.232 31.6408C111.141 31.6408 109.271 31.1853 107.623 30.2741C105.974 29.3629 104.681 28.0692 103.743 26.3938C102.805 24.7185 102.335 22.7945 102.335 20.6238C102.335 18.4522 102.805 16.5356 103.743 14.8741C104.681 13.2116 105.974 11.9253 107.623 11.0132C109.271 10.1021 111.141 9.64648 113.232 9.64648L113.231 9.64741ZM113.794 27.3392C115 27.3392 116.086 27.0647 117.05 26.5149C118.015 25.966 118.779 25.1814 119.342 24.1631C119.905 23.1447 120.187 21.9656 120.187 20.6247C120.187 19.2848 119.906 18.1056 119.342 17.0864C118.779 16.068 118.015 15.2835 117.05 14.7336C116.086 14.1847 115 13.9093 113.794 13.9093C111.944 13.9093 110.423 14.5266 109.23 15.7594C108.038 16.993 107.441 18.6148 107.441 20.6247C107.441 22.6355 108.038 24.2573 109.23 25.4901C110.423 26.7237 111.944 27.3401 113.794 27.3401V27.3392Z" fill="white"/>
<path d="M45.61 12.4208V28.987C45.61 30.3084 44.539 31.3795 43.2176 31.3795C41.8961 31.3795 40.8251 30.3084 40.8251 28.987V28.6451C40.0211 29.6098 39.0157 30.3537 37.8088 30.8768C36.6029 31.3998 35.3018 31.6604 33.9082 31.6604C31.0399 31.6604 28.7814 30.8638 27.1328 29.2679C25.4842 27.6729 24.6599 25.3073 24.6599 22.1718V12.4208C24.6599 11.0328 25.7855 9.90723 27.1734 9.90723C28.5614 9.90723 29.687 11.0328 29.687 12.4208V21.488C29.687 23.4184 30.1222 24.86 30.9937 25.8109C31.8642 26.7627 33.1052 27.2386 34.7131 27.2386C36.5086 27.2386 37.9364 26.6823 38.9954 25.5697C40.0544 24.458 40.5839 22.8556 40.5839 20.7644V12.4208C40.5839 11.0328 41.7094 9.90723 43.0974 9.90723C44.4854 9.90723 45.611 11.0328 45.611 12.4208H45.61Z" fill="white"/>
</svg>
